<svg width="1440" height="590" fill="none" xmlns="http://www.w3.org/2000/svg"><path d="M0 547.51c202.703 0 347.472-34.877 480.333-32.752 309.407 4.947 163.306-142.076 480.334-142.076C1305.86 372.682 1223.24 243 1441 243" stroke="#5F82FF" stroke-width="3"/><path d="M480.333 514.758C347.472 512.633 202.703 547.51 0 547.51V590h1441V243c-217.76 0-135.14 129.682-480.333 129.682-317.028 0-170.927 147.023-480.334 142.076z" fill="url(#paint0_linear_19060_2)" fill-opacity=".4"/><path stroke="#D8E0F7" d="M924.5 325v189"/><g filter="url(#filter0_d_19060_2)"><circle cx="924.5" cy="373.5" r="7.5" fill="#fff"/><circle cx="924.5" cy="373.5" r="6.5" stroke="#5E80FE" stroke-width="2"/></g><path stroke="#D8E0F7" d="M1332.5 125v317"/><g filter="url(#filter1_d_19060_2)"><circle cx="1332.5" cy="259.5" r="7.5" fill="#fff"/><circle cx="1332.5" cy="259.5" r="6.5" stroke="#5E80FE" stroke-width="2"/></g><path stroke="#D8E0F7" d="M515.5 503v59m-408-175v190"/><mask id="path-11-inside-1_19060_2" fill="#fff"><path fill-rule="evenodd" clip-rule="evenodd" d="M154 451a3 3 0 00-3-3H65a3 3 0 00-3 3v57.26a3 3 0 003 3h36.669a3 3 0 012.485 1.319l1.361 2.012c1.19 1.759 3.78 1.759 4.97 0l1.361-2.012a3 3 0 012.485-1.319H151a3 3 0 003-3V451z"/></mask><path fill-rule="evenodd" clip-rule="evenodd" d="M154 451a3 3 0 00-3-3H65a3 3 0 00-3 3v57.26a3 3 0 003 3h36.669a3 3 0 012.485 1.319l1.361 2.012c1.19 1.759 3.78 1.759 4.97 0l1.361-2.012a3 3 0 012.485-1.319H151a3 3 0 003-3V451z" fill="#fff"/><path d="M111.846 512.579l-.829-.56.829.56zm-6.331 2.012l.828-.56-.828.56zm4.97 0l.828.56-.828-.56zM65 449h86v-2H65v2zm-2 59.26V451h-2v57.26h2zm38.669 2H65v2h36.669v-2zm4.674 3.771l-1.36-2.012-1.657 1.121 1.361 2.011 1.656-1.12zm4.674-2.012l-1.36 2.012 1.656 1.12 1.361-2.011-1.657-1.121zM151 510.26h-36.669v2H151v-2zm2-59.26v57.26h2V451h-2zm-2 61.26a4 4 0 004-4h-2a2 2 0 01-2 2v2zm-38.326.88c.372-.55.993-.88 1.657-.88v-2c-1.328 0-2.57.659-3.314 1.759l1.657 1.121zm-7.987 2.011c1.586 2.346 5.04 2.346 6.626 0l-1.656-1.12a2 2 0 01-3.314 0l-1.656 1.12zm-3.018-2.891c.664 0 1.285.33 1.657.88l1.657-1.121a4.001 4.001 0 00-3.314-1.759v2zm-40.669-4a4 4 0 004 4v-2a2 2 0 01-2-2h-2zM151 449a2 2 0 012 2h2a4 4 0 00-4-4v2zm-86-2a4 4 0 00-4 4h2a2 2 0 012-2v-2z" fill="#D8E0F7" mask="url(#path-11-inside-1_19060_2)"/><g filter="url(#filter2_d_19060_2)"><circle cx="107.5" cy="544.5" r="7.5" fill="#fff"/><circle cx="107.5" cy="544.5" r="6.5" stroke="#5E80FE" stroke-width="2"/></g><g filter="url(#filter3_d_19060_2)"><path stroke="#D8E3FE" d="M0 20.5h1440"/><g filter="url(#filter4_d_19060_2)"><circle cx="515.5" cy="514.5" r="7.5" fill="#fff"/><circle cx="515.5" cy="514.5" r="6.5" stroke="#5E80FE" stroke-width="2"/></g><mask id="path-18-inside-2_19060_2" fill="#fff"><path fill-rule="evenodd" clip-rule="evenodd" d="M562 428a3 3 0 00-3-3h-86a3 3 0 00-3 3v57.26a3 3 0 003 3h36.669a3 3 0 012.485 1.319l1.361 2.012c1.19 1.759 3.78 1.759 4.97 0l1.361-2.012a2.998 2.998 0 012.485-1.319H559a3 3 0 003-3V428z"/></mask><path fill-rule="evenodd" clip-rule="evenodd" d="M562 428a3 3 0 00-3-3h-86a3 3 0 00-3 3v57.26a3 3 0 003 3h36.669a3 3 0 012.485 1.319l1.361 2.012c1.19 1.759 3.78 1.759 4.97 0l1.361-2.012a2.998 2.998 0 012.485-1.319H559a3 3 0 003-3V428z" fill="#fff"/><path d="M519.846 489.579l-.829-.56.829.56zm-6.331 2.012l.828-.56-.828.56zm-1.361-2.012l-.828.561.828-.561zM473 426h86v-2h-86v2zm-2 59.26V428h-2v57.26h2zm38.669 2H473v2h36.669v-2zm4.674 3.771l-1.36-2.012-1.657 1.121 1.361 2.011 1.656-1.12zm4.674-2.012l-1.36 2.012 1.656 1.12 1.361-2.011-1.657-1.121zM559 487.26h-36.669v2H559v-2zm2-59.26v57.26h2V428h-2zm-2 61.26a4 4 0 004-4h-2a2 2 0 01-2 2v2zm-38.326.88c.372-.55.993-.88 1.657-.88v-2c-1.328 0-2.57.659-3.314 1.759l1.657 1.121zm-7.987 2.011c1.586 2.346 5.04 2.346 6.626 0l-1.656-1.12a2 2 0 01-3.314 0l-1.656 1.12zm-3.018-2.891c.664 0 1.285.33 1.657.88l1.657-1.121a4.001 4.001 0 00-3.314-1.759v2zm-40.669-4a4 4 0 004 4v-2a2 2 0 01-2-2h-2zM559 426a2 2 0 012 2h2a4 4 0 00-4-4v2zm-86-2a4 4 0 00-4 4h2a2 2 0 012-2v-2z" fill="#d8f7db" mask="url(#path-18-inside-2_19060_2)"/><path d="M499 458.25c0-9.527 7.668-17.25 17.128-17.25 1.743 0 3.426.262 5.011.75" stroke="#5F82FF" stroke-width="4" stroke-linecap="round" stroke-linejoin="round"/><path fill-rule="evenodd" clip-rule="evenodd" d="M512.442 461.962a5.185 5.185 0 007.372 0c2.035-2.05 10.462-16.462 9.718-17.212-.745-.75-15.055 7.737-17.09 9.788a5.275 5.275 0 000 7.424zm3.685-2.212c.823 0 1.49-.672 1.49-1.5s-.667-1.5-1.49-1.5c-.822 0-1.489.672-1.489 1.5s.667 1.5 1.489 1.5z" fill="#5F82FF"/><ellipse cx="501.234" cy="467.25" rx="1.489" ry="1.5" fill="#5F82FF"/><ellipse cx="507.191" cy="473.25" rx="1.489" ry="1.5" fill="#5F82FF"/><ellipse cx="516.128" cy="475.5" rx="1.489" ry="1.5" fill="#5F82FF"/><ellipse cx="525.064" cy="473.25" rx="1.489" ry="1.5" fill="#5F82FF"/><ellipse cx="530.277" cy="467.25" rx="1.489" ry="1.5" fill="#5F82FF"/><ellipse cx="532.511" cy="458.25" rx="1.489" ry="1.5" fill="#5F82FF"/><path d="M91 481.25c0-9.527 7.668-17.25 17.128-17.25 1.743 0 3.426.262 5.011.75" stroke="#5F82FF" stroke-width="4" stroke-linecap="round" stroke-linejoin="round"/><path fill-rule="evenodd" clip-rule="evenodd" d="M104.442 484.962a5.185 5.185 0 007.372 0c2.035-2.05 10.462-16.462 9.718-17.212-.745-.75-15.055 7.737-17.09 9.788a5.275 5.275 0 000 7.424zm3.686-2.212c.822 0 1.489-.672 1.489-1.5s-.667-1.5-1.489-1.5c-.823 0-1.49.672-1.49 1.5s.667 1.5 1.49 1.5z" fill="#5F82FF"/><ellipse cx="93.234" cy="490.25" rx="1.489" ry="1.5" fill="#5F82FF"/><ellipse cx="99.192" cy="496.25" rx="1.489" ry="1.5" fill="#5F82FF"/><ellipse cx="108.128" cy="498.5" rx="1.489" ry="1.5" fill="#5F82FF"/><ellipse cx="117.064" cy="496.25" rx="1.489" ry="1.5" fill="#5F82FF"/><ellipse cx="122.277" cy="490.25" rx="1.489" ry="1.5" fill="#5F82FF"/><ellipse cx="124.511" cy="481.25" rx="1.489" ry="1.5" fill="#5F82FF"/><mask id="path-36-inside-3_19060_2" fill="#fff"><path fill-rule="evenodd" clip-rule="evenodd" d="M971 286a3 3 0 00-3-3h-86a3 3 0 00-3 3v57.26a3 3 0 003 3h36.669a3 3 0 012.485 1.319l1.361 2.012c1.19 1.759 3.78 1.759 4.97 0l1.361-2.012a3 3 0 012.485-1.319H968a3 3 0 003-3V286z"/></mask><path fill-rule="evenodd" clip-rule="evenodd" d="M971 286a3 3 0 00-3-3h-86a3 3 0 00-3 3v57.26a3 3 0 003 3h36.669a3 3 0 012.485 1.319l1.361 2.012c1.19 1.759 3.78 1.759 4.97 0l1.361-2.012a3 3 0 012.485-1.319H968a3 3 0 003-3V286z" fill="#fff"/><path d="M928.846 347.579l-.829-.56.829.56zm-6.331 2.012l.828-.56-.828.56zm4.97 0l.828.56-.828-.56zM882 284h86v-2h-86v2zm-2 59.26V286h-2v57.26h2zm38.669 2H882v2h36.669v-2zm4.674 3.771l-1.36-2.012-1.657 1.121 1.361 2.011 1.656-1.12zm4.674-2.012l-1.36 2.012 1.656 1.12 1.361-2.011-1.657-1.121zM968 345.26h-36.669v2H968v-2zm2-59.26v57.26h2V286h-2zm-2 61.26a4 4 0 004-4h-2a2 2 0 01-2 2v2zm-38.326.88c.372-.55.993-.88 1.657-.88v-2c-1.328 0-2.57.659-3.314 1.759l1.657 1.121zm-7.987 2.011c1.586 2.346 5.04 2.346 6.626 0l-1.656-1.12a2 2 0 01-3.314 0l-1.656 1.12zm-3.018-2.891c.664 0 1.285.33 1.657.88l1.657-1.121a4.001 4.001 0 00-3.314-1.759v2zm-40.669-4a4 4 0 004 4v-2a2 2 0 01-2-2h-2zM968 284a2 2 0 012 2h2a4 4 0 00-4-4v2zm-86-2a4 4 0 00-4 4h2a2 2 0 012-2v-2z" fill="#D8E0F7" mask="url(#path-36-inside-3_19060_2)"/><path d="M908 316.25c0-9.527 7.668-17.25 17.128-17.25 1.743 0 3.426.262 5.011.75" stroke="#5F82FF" stroke-width="4" stroke-linecap="round" stroke-linejoin="round"/><path fill-rule="evenodd" clip-rule="evenodd" d="M921.442 319.962a5.185 5.185 0 007.372 0c2.035-2.05 10.462-16.462 9.718-17.212-.745-.75-15.055 7.737-17.09 9.788a5.275 5.275 0 000 7.424zm3.686-2.212c.822 0 1.489-.672 1.489-1.5s-.667-1.5-1.489-1.5c-.823 0-1.49.672-1.49 1.5s.667 1.5 1.49 1.5z" fill="#5F82FF"/><ellipse cx="910.234" cy="325.25" rx="1.489" ry="1.5" fill="#5F82FF"/><ellipse cx="916.192" cy="331.25" rx="1.489" ry="1.5" fill="#5F82FF"/><ellipse cx="925.128" cy="333.5" rx="1.489" ry="1.5" fill="#5F82FF"/><ellipse cx="934.064" cy="331.25" rx="1.489" ry="1.5" fill="#5F82FF"/><ellipse cx="939.277" cy="325.25" rx="1.489" ry="1.5" fill="#5F82FF"/><ellipse cx="941.511" cy="316.25" rx="1.489" ry="1.5" fill="#5F82FF"/><mask id="path-46-inside-4_19060_2" fill="#fff"><path fill-rule="evenodd" clip-rule="evenodd" d="M1379 173c0-1.657-1.34-3-3-3h-86c-1.66 0-3 1.343-3 3v57.26c0 1.657 1.34 3 3 3h36.67c1 0 1.93.494 2.48 1.319l1.36 2.012c1.19 1.759 3.79 1.759 4.97 0l1.37-2.012a2.975 2.975 0 012.48-1.319H1376c1.66 0 3-1.343 3-3V173z"/></mask><path fill-rule="evenodd" clip-rule="evenodd" d="M1379 173c0-1.657-1.34-3-3-3h-86c-1.66 0-3 1.343-3 3v57.26c0 1.657 1.34 3 3 3h36.67c1 0 1.93.494 2.48 1.319l1.36 2.012c1.19 1.759 3.79 1.759 4.97 0l1.37-2.012a2.975 2.975 0 012.48-1.319H1376c1.66 0 3-1.343 3-3V173z" fill="#fff"/><path d="M1336.85 234.579l-.83-.56.83.56zm-6.34 2.012l.83-.56-.83.56zm4.97 0l.83.56-.83-.56zM1290 171h86v-2h-86v2zm-2 59.26V173h-2v57.26h2zm38.67 2H1290v2h36.67v-2zm4.67 3.771l-1.36-2.012-1.65 1.121 1.36 2.011 1.65-1.12zm4.68-2.012l-1.36 2.012 1.65 1.12 1.36-2.011-1.65-1.121zm39.98-1.759h-36.67v2H1376v-2zm2-59.26v57.26h2V173h-2zm-2 61.26a4 4 0 004-4h-2c0 1.105-.9 2-2 2v2zm-38.33.88c.38-.55 1-.88 1.66-.88v-2c-1.33 0-2.57.659-3.31 1.759l1.65 1.121zm-7.98 2.011c1.58 2.346 5.04 2.346 6.62 0l-1.65-1.12a2.006 2.006 0 01-3.32 0l-1.65 1.12zm-3.02-2.891c.66 0 1.28.33 1.66.88l1.65-1.121a3.986 3.986 0 00-3.31-1.759v2zm-40.67-4a4 4 0 004 4v-2c-1.1 0-2-.895-2-2h-2zm90-59.26c1.1 0 2 .895 2 2h2a4 4 0 00-4-4v2zm-86-2a4 4 0 00-4 4h2c0-1.105.9-2 2-2v-2z" fill="#D8E0F7" mask="url(#path-46-inside-4_19060_2)"/><path d="M1316 203.25c0-9.527 7.67-17.25 17.13-17.25 1.74 0 3.42.262 5.01.75" stroke="#5F82FF" stroke-width="4" stroke-linecap="round" stroke-linejoin="round"/><path fill-rule="evenodd" clip-rule="evenodd" d="M1329.44 206.962a5.183 5.183 0 007.37 0c2.04-2.05 10.47-16.462 9.72-17.212-.74-.75-15.05 7.737-17.09 9.788a5.286 5.286 0 000 7.424zm3.69-2.212c.82 0 1.49-.672 1.49-1.5s-.67-1.5-1.49-1.5c-.83 0-1.49.672-1.49 1.5s.66 1.5 1.49 1.5z" fill="#5F82FF"/><ellipse cx="1318.23" cy="212.25" rx="1.489" ry="1.5" fill="#5F82FF"/><ellipse cx="1324.19" cy="218.25" rx="1.489" ry="1.5" fill="#5F82FF"/><ellipse cx="1333.13" cy="220.5" rx="1.489" ry="1.5" fill="#5F82FF"/><ellipse cx="1342.06" cy="218.25" rx="1.489" ry="1.5" fill="#5F82FF"/><ellipse cx="1347.28" cy="212.25" rx="1.489" ry="1.5" fill="#5F82FF"/><ellipse cx="1349.51" cy="203.25" rx="1.489" ry="1.5" fill="#5F82FF"/></g><defs><filter id="filter0_d_19060_2" x="902" y="351" width="45" height="45" filterUnits="userSpaceOnUse" color-interpolation-filters="sRGB"><feFlood flood-opacity="0" result="BackgroundImageFix"/><feColorMatrix in="SourceAlpha" values="0 0 0 0 0 0 0 0 0 0 0 0 0 0 0 0 0 0 127 0" result="hardAlpha"/><feOffset/><feGaussianBlur stdDeviation="7.5"/><feColorMatrix values="0 0 0 0 0.323144 0 0 0 0 0.512664 0 0 0 0 1 0 0 0 0.25 0"/><feBlend in2="BackgroundImageFix" result="effect1_dropShadow_19060_2"/><feBlend in="SourceGraphic" in2="effect1_dropShadow_19060_2" result="shape"/></filter><filter id="filter1_d_19060_2" x="1310" y="237" width="45" height="45" filterUnits="userSpaceOnUse" color-interpolation-filters="sRGB"><feFlood flood-opacity="0" result="BackgroundImageFix"/><feColorMatrix in="SourceAlpha" values="0 0 0 0 0 0 0 0 0 0 0 0 0 0 0 0 0 0 127 0" result="hardAlpha"/><feOffset/><feGaussianBlur stdDeviation="7.5"/><feColorMatrix values="0 0 0 0 0.323144 0 0 0 0 0.512664 0 0 0 0 1 0 0 0 0.25 0"/><feBlend in2="BackgroundImageFix" result="effect1_dropShadow_19060_2"/><feBlend in="SourceGraphic" in2="effect1_dropShadow_19060_2" result="shape"/></filter><filter id="filter2_d_19060_2" x="85" y="522" width="45" height="45" filterUnits="userSpaceOnUse" color-interpolation-filters="sRGB"><feFlood flood-opacity="0" result="BackgroundImageFix"/><feColorMatrix in="SourceAlpha" values="0 0 0 0 0 0 0 0 0 0 0 0 0 0 0 0 0 0 127 0" result="hardAlpha"/><feOffset/><feGaussianBlur stdDeviation="7.5"/><feColorMatrix values="0 0 0 0 0.323144 0 0 0 0 0.512664 0 0 0 0 1 0 0 0 0.25 0"/><feBlend in2="BackgroundImageFix" result="effect1_dropShadow_19060_2"/><feBlend in="SourceGraphic" in2="effect1_dropShadow_19060_2" result="shape"/></filter><filter id="filter3_d_19060_2" x="-30" y="0" width="1500" height="562" filterUnits="userSpaceOnUse" color-interpolation-filters="sRGB"><feFlood flood-opacity="0" result="BackgroundImageFix"/><feColorMatrix in="SourceAlpha" values="0 0 0 0 0 0 0 0 0 0 0 0 0 0 0 0 0 0 127 0" result="hardAlpha"/><feOffset dy="10"/><feGaussianBlur stdDeviation="15"/><feColorMatrix values="0 0 0 0 0.894415 0 0 0 0 0.918495 0 0 0 0 0.984716 0 0 0 1 0"/><feBlend in2="BackgroundImageFix" result="effect1_dropShadow_19060_2"/><feBlend in="SourceGraphic" in2="effect1_dropShadow_19060_2" result="shape"/></filter><filter id="filter4_d_19060_2" x="493" y="492" width="45" height="45" filterUnits="userSpaceOnUse" color-interpolation-filters="sRGB"><feFlood flood-opacity="0" result="BackgroundImageFix"/><feColorMatrix in="SourceAlpha" values="0 0 0 0 0 0 0 0 0 0 0 0 0 0 0 0 0 0 127 0" result="hardAlpha"/><feOffset/><feGaussianBlur stdDeviation="7.5"/><feColorMatrix values="0 0 0 0 0.323144 0 0 0 0 0.512664 0 0 0 0 1 0 0 0 0.25 0"/><feBlend in2="BackgroundImageFix" result="effect1_dropShadow_19060_2"/><feBlend in="SourceGraphic" in2="effect1_dropShadow_19060_2" result="shape"/></filter><linearGradient id="paint0_linear_19060_2" x1="278.466" y1="590.443" x2="278.466" y2="135.005" gradientUnits="userSpaceOnUse"><stop stop-color="#4B71FF" stop-opacity="0"/><stop offset="1" stop-color="#6B89F8"/></linearGradient></defs></svg>