<svg width="1440" height="465" fill="none" xmlns="http://www.w3.org/2000/svg"><path d="M0 422.51c202.703 0 347.472-34.877 480.333-32.752 309.407 4.947 163.306-142.076 480.334-142.076C1305.86 247.682 1223.24 118 1441 118" stroke="#5F82FF" stroke-width="3"/><path d="M480.333 389.758C347.472 387.633 202.703 422.51 0 422.51V465h1441V118c-217.76 0-135.14 129.682-480.333 129.682-317.028 0-170.927 147.023-480.334 142.076z" fill="url(#paint0_linear_6_26)" fill-opacity=".4"/><path stroke="#D8E0F7" d="M924.5 200v189"/><g filter="url(#filter0_d_6_26)"><circle cx="924.5" cy="248.5" r="7.5" fill="#fff"/><circle cx="924.5" cy="248.5" r="6.5" stroke="#5E80FE" stroke-width="2"/></g><path stroke="#D8E0F7" d="M1332.5 0v317"/><g filter="url(#filter1_d_6_26)"><circle cx="1332.5" cy="134.5" r="7.5" fill="#fff"/><circle cx="1332.5" cy="134.5" r="6.5" stroke="#5E80FE" stroke-width="2"/></g><path stroke="#D8E0F7" d="M515.5 378v59m-408-175v190"/><mask id="path-11-inside-1_6_26" fill="#fff"><path fill-rule="evenodd" clip-rule="evenodd" d="M154 326a3 3 0 00-3-3H65a3 3 0 00-3 3v57.26a3 3 0 003 3h36.669a3 3 0 012.485 1.319l1.361 2.012c1.19 1.759 3.78 1.759 4.97 0l1.361-2.012a3 3 0 012.485-1.319H151a3 3 0 003-3V326z"/></mask><path fill-rule="evenodd" clip-rule="evenodd" d="M154 326a3 3 0 00-3-3H65a3 3 0 00-3 3v57.26a3 3 0 003 3h36.669a3 3 0 012.485 1.319l1.361 2.012c1.19 1.759 3.78 1.759 4.97 0l1.361-2.012a3 3 0 012.485-1.319H151a3 3 0 003-3V326z" fill="#fff"/><path d="M111.846 387.579l-.829-.56.829.56zm-6.331 2.012l.828-.56-.828.56zm4.97 0l.828.56-.828-.56zM65 324h86v-2H65v2zm-2 59.26V326h-2v57.26h2zm38.669 2H65v2h36.669v-2zm4.674 3.771l-1.36-2.012-1.657 1.121 1.361 2.011 1.656-1.12zm4.674-2.012l-1.36 2.012 1.656 1.12 1.361-2.011-1.657-1.121zM151 385.26h-36.669v2H151v-2zm2-59.26v57.26h2V326h-2zm-2 61.26a4 4 0 004-4h-2a2 2 0 01-2 2v2zm-38.326.88c.372-.55.993-.88 1.657-.88v-2c-1.328 0-2.57.659-3.314 1.759l1.657 1.121zm-7.987 2.011c1.586 2.346 5.04 2.346 6.626 0l-1.656-1.12a2 2 0 01-3.314 0l-1.656 1.12zm-3.018-2.891c.664 0 1.285.33 1.657.88l1.657-1.121a4.001 4.001 0 00-3.314-1.759v2zm-40.669-4a4 4 0 004 4v-2a2 2 0 01-2-2h-2zM151 324a2 2 0 012 2h2a4 4 0 00-4-4v2zm-86-2a4 4 0 00-4 4h2a2 2 0 012-2v-2z" fill="#D8E0F7" mask="url(#path-11-inside-1_6_26)"/><g filter="url(#filter2_d_6_26)"><circle cx="107.5" cy="419.5" r="7.5" fill="#fff"/><circle cx="107.5" cy="419.5" r="6.5" stroke="#5E80FE" stroke-width="2"/></g><defs><filter id="filter0_d_6_26" x="902" y="226" width="45" height="45" filterUnits="userSpaceOnUse" color-interpolation-filters="sRGB"><feFlood flood-opacity="0" result="BackgroundImageFix"/><feColorMatrix in="SourceAlpha" values="0 0 0 0 0 0 0 0 0 0 0 0 0 0 0 0 0 0 127 0" result="hardAlpha"/><feOffset/><feGaussianBlur stdDeviation="7.5"/><feColorMatrix values="0 0 0 0 0.323144 0 0 0 0 0.512664 0 0 0 0 1 0 0 0 0.25 0"/><feBlend in2="BackgroundImageFix" result="effect1_dropShadow_6_26"/><feBlend in="SourceGraphic" in2="effect1_dropShadow_6_26" result="shape"/></filter><filter id="filter1_d_6_26" x="1310" y="112" width="45" height="45" filterUnits="userSpaceOnUse" color-interpolation-filters="sRGB"><feFlood flood-opacity="0" result="BackgroundImageFix"/><feColorMatrix in="SourceAlpha" values="0 0 0 0 0 0 0 0 0 0 0 0 0 0 0 0 0 0 127 0" result="hardAlpha"/><feOffset/><feGaussianBlur stdDeviation="7.5"/><feColorMatrix values="0 0 0 0 0.323144 0 0 0 0 0.512664 0 0 0 0 1 0 0 0 0.25 0"/><feBlend in2="BackgroundImageFix" result="effect1_dropShadow_6_26"/><feBlend in="SourceGraphic" in2="effect1_dropShadow_6_26" result="shape"/></filter><filter id="filter2_d_6_26" x="85" y="397" width="45" height="45" filterUnits="userSpaceOnUse" color-interpolation-filters="sRGB"><feFlood flood-opacity="0" result="BackgroundImageFix"/><feColorMatrix in="SourceAlpha" values="0 0 0 0 0 0 0 0 0 0 0 0 0 0 0 0 0 0 127 0" result="hardAlpha"/><feOffset/><feGaussianBlur stdDeviation="7.5"/><feColorMatrix values="0 0 0 0 0.323144 0 0 0 0 0.512664 0 0 0 0 1 0 0 0 0.25 0"/><feBlend in2="BackgroundImageFix" result="effect1_dropShadow_6_26"/><feBlend in="SourceGraphic" in2="effect1_dropShadow_6_26" result="shape"/></filter><linearGradient id="paint0_linear_6_26" x1="278.466" y1="465.443" x2="278.466" y2="10.005" gradientUnits="userSpaceOnUse"><stop stop-color="#4B71FF" stop-opacity="0"/><stop offset="1" stop-color="#6B89F8"/></linearGradient></defs></svg>