<svg width="1364" height="396" fill="none" xmlns="http://www.w3.org/2000/svg"><g filter="url(#filter0_d_9:441)"><path d="M1110.71 160c-37.83 0-68.5 31.274-68.5 69.853h136.99c0-38.579-30.67-69.853-68.49-69.853z" fill="#6E8DFF"/></g><g filter="url(#filter1_d_9:441)"><path d="M1167.1 193.48c-83.39 0-150.99 68.286-150.99 152.52h301.98c0-84.234-67.6-152.52-150.99-152.52z" fill="#6C8BFF"/></g><g filter="url(#filter2_d_9:441)"><path d="M113.495 40C75.666 40 45 71.274 45 109.853h136.989c0-38.579-30.666-69.853-68.494-69.853z" fill="#6E8DFF"/></g><g filter="url(#filter3_d_9:441)"><path d="M181.5 58c-43.354 0-78.5 35.37-78.5 79h157c0-43.63-35.146-79-78.5-79z" fill="#6C8BFF"/></g><defs><filter id="filter0_d_9:441" x="997.21" y="120" width="226.989" height="159.854" filterUnits="userSpaceOnUse" color-interpolation-filters="sRGB"><feFlood flood-opacity="0" result="BackgroundImageFix"/><feColorMatrix in="SourceAlpha" values="0 0 0 0 0 0 0 0 0 0 0 0 0 0 0 0 0 0 127 0" result="hardAlpha"/><feOffset dy="5"/><feGaussianBlur stdDeviation="22.5"/><feColorMatrix values="0 0 0 0 0.593724 0 0 0 0 0.684469 0 0 0 0 0.888646 0 0 0 0.1 0"/><feBlend in2="BackgroundImageFix" result="effect1_dropShadow_9:441"/><feBlend in="SourceGraphic" in2="effect1_dropShadow_9:441" result="shape"/></filter><filter id="filter1_d_9:441" x="971.114" y="153.48" width="391.974" height="242.52" filterUnits="userSpaceOnUse" color-interpolation-filters="sRGB"><feFlood flood-opacity="0" result="BackgroundImageFix"/><feColorMatrix in="SourceAlpha" values="0 0 0 0 0 0 0 0 0 0 0 0 0 0 0 0 0 0 127 0" result="hardAlpha"/><feOffset dy="5"/><feGaussianBlur stdDeviation="22.5"/><feColorMatrix values="0 0 0 0 0.593724 0 0 0 0 0.684469 0 0 0 0 0.888646 0 0 0 0.1 0"/><feBlend in2="BackgroundImageFix" result="effect1_dropShadow_9:441"/><feBlend in="SourceGraphic" in2="effect1_dropShadow_9:441" result="shape"/></filter><filter id="filter2_d_9:441" x="0" y="0" width="226.989" height="159.854" filterUnits="userSpaceOnUse" color-interpolation-filters="sRGB"><feFlood flood-opacity="0" result="BackgroundImageFix"/><feColorMatrix in="SourceAlpha" values="0 0 0 0 0 0 0 0 0 0 0 0 0 0 0 0 0 0 127 0" result="hardAlpha"/><feOffset dy="5"/><feGaussianBlur stdDeviation="22.5"/><feColorMatrix values="0 0 0 0 0.593724 0 0 0 0 0.684469 0 0 0 0 0.888646 0 0 0 0.1 0"/><feBlend in2="BackgroundImageFix" result="effect1_dropShadow_9:441"/><feBlend in="SourceGraphic" in2="effect1_dropShadow_9:441" result="shape"/></filter><filter id="filter3_d_9:441" x="58" y="18" width="247" height="169" filterUnits="userSpaceOnUse" color-interpolation-filters="sRGB"><feFlood flood-opacity="0" result="BackgroundImageFix"/><feColorMatrix in="SourceAlpha" values="0 0 0 0 0 0 0 0 0 0 0 0 0 0 0 0 0 0 127 0" result="hardAlpha"/><feOffset dy="5"/><feGaussianBlur stdDeviation="22.5"/><feColorMatrix values="0 0 0 0 0.593724 0 0 0 0 0.684469 0 0 0 0 0.888646 0 0 0 0.1 0"/><feBlend in2="BackgroundImageFix" result="effect1_dropShadow_9:441"/><feBlend in="SourceGraphic" in2="effect1_dropShadow_9:441" result="shape"/></filter></defs></svg>