<svg width="100%" viewBox="0 0 1440 420" fill="none" preserveAspectRatio="none" xmlns="http://www.w3.org/2000/svg">

    <!--Синяя ЛИНИЯ-->
    <path class="hero-image__blue-line"
        d="M0 397.51C202.703 397.51 347.472 362.633 480.333 364.758C789.74 369.705 643.639 222.682 960.667 222.682C1305.86 222.682 1223.24 93 1441 93"
        stroke="#5F82FF" stroke-width="3" />


    <!--Тень Синей ЛИНИИ-->
    <path class="hero-image__blue-line-shadow"
        d="M480.333 364.758C347.472 362.633 202.703 397.51 0 397.51V440H1441V93C1223.24 93 1305.86 222.682 960.667 222.682C643.639 222.682 789.74 369.705 480.333 364.758Z"
        fill="url(#paint0_linear_9_326)" fill-opacity="0.4" />

    <!--3-й КРУГ-->
    <g class="hero-image__circle-3" filter="url(#filter0_d_9_326)">
        <circle cx="924.5" cy="223.5" r="7.5" fill="white" />
        <circle cx="924.5" cy="223.5" r="6.5" stroke="#5E80FE" stroke-width="2" />
    </g>
    <!--4-й КРУГ-->
    <g class="hero-image__circle-4" filter="url(#filter1_d_9_326)">
        <circle cx="1332.5" cy="109.5" r="7.5" fill="white" />
        <circle cx="1332.5" cy="109.5" r="6.5" stroke="#5E80FE" stroke-width="2" />
    </g>
    <!--Бордер 1-го БЛОКА-->
    <mask id="path-7-inside-1_9_326" fill="white">
        <path fill-rule="evenodd" clip-rule="evenodd"
            d="M154 301C154 299.343 152.657 298 151 298H65C63.3431 298 62 299.343 62 301V358.26C62 359.917 63.3431 361.26 65 361.26H101.669C102.665 361.26 103.596 361.754 104.154 362.579L105.515 364.591C106.705 366.35 109.295 366.35 110.485 364.591L111.846 362.579C112.404 361.754 113.335 361.26 114.331 361.26H151C152.657 361.26 154 359.917 154 358.26V301Z" />
    </mask>
    <!--Белый ФОН 1-го Блока-->
    <path fill-rule="evenodd" clip-rule="evenodd"
        d="M154 301C154 299.343 152.657 298 151 298H65C63.3431 298 62 299.343 62 301V358.26C62 359.917 63.3431 361.26 65 361.26H101.669C102.665 361.26 103.596 361.754 104.154 362.579L105.515 364.591C106.705 366.35 109.295 366.35 110.485 364.591L111.846 362.579C112.404 361.754 113.335 361.26 114.331 361.26H151C152.657 361.26 154 359.917 154 358.26V301Z"
        fill="white" />
    <!--БОРДЕР 1-го Блока (когда закоммент, то Бордера Нет)-->
    <path
        d="M111.846 362.579L111.017 362.019L111.846 362.579ZM105.515 364.591L106.343 364.031L105.515 364.591ZM110.485 364.591L109.657 364.031L110.485 364.591ZM104.154 362.579L104.983 362.019L104.154 362.579ZM65 299H151V297H65V299ZM63 358.26V301H61V358.26H63ZM101.669 360.26H65V362.26H101.669V360.26ZM106.343 364.031L104.983 362.019L103.326 363.14L104.687 365.151L106.343 364.031ZM111.017 362.019L109.657 364.031L111.313 365.151L112.674 363.14L111.017 362.019ZM151 360.26H114.331V362.26H151V360.26ZM153 301V358.26H155V301H153ZM151 362.26C153.209 362.26 155 360.469 155 358.26H153C153 359.365 152.105 360.26 151 360.26V362.26ZM112.674 363.14C113.046 362.59 113.667 362.26 114.331 362.26V360.26C113.003 360.26 111.761 360.919 111.017 362.019L112.674 363.14ZM104.687 365.151C106.273 367.497 109.727 367.497 111.313 365.151L109.657 364.031C108.863 365.204 107.136 365.204 106.343 364.031L104.687 365.151ZM101.669 362.26C102.333 362.26 102.954 362.59 103.326 363.14L104.983 362.019C104.239 360.919 102.997 360.26 101.669 360.26V362.26ZM61 358.26C61 360.469 62.7909 362.26 65 362.26V360.26C63.8954 360.26 63 359.365 63 358.26H61ZM151 299C152.105 299 153 299.895 153 301H155C155 298.791 153.209 297 151 297V299ZM65 297C62.7909 297 61 298.791 61 301H63C63 299.895 63.8954 299 65 299V297Z"
        fill="#D8E0F7" mask="url(#path-7-inside-1_9_326)" />
    <!--1-й КРУГ-->
    <g class="hero-image__circle-1" filter="url(#filter2_d_9_326)">
        <circle cx="107.5" cy="394.5" r="7.5" fill="white" />
        <circle cx="107.5" cy="394.5" r="6.5" stroke="#5E80FE" stroke-width="2" />
    </g>

    <!--Синее СОДЕРЖИМОЕ 1-го Блока, 2-я ГРУППА, 3-й БЛОК с СОДЕРЖИМЫМ, 4-й БЛОК с СОДЕРЖИМЫМ -->
    <g filter="url(#filter3_d_9_326)">

        <!--2-й КРУГ-->
        <g class="hero-images__circle-2" filter="url(#filter4_d_9_326)">
            <circle cx="515.5" cy="364.5" r="7.5" fill="white" />
            <circle cx="515.5" cy="364.5" r="6.5" stroke="#5E80FE" stroke-width="2" />
        </g>
        <!--БОРДЕР 2-го БЛОКА (Когда закоммент, то Бордер Жирный )-->
        <mask id="path-13-inside-2_9_326" fill="white">
            <path fill-rule="evenodd" clip-rule="evenodd"
                d="M562 278C562 276.343 560.657 275 559 275H473C471.343 275 470 276.343 470 278V335.26C470 336.917 471.343 338.26 473 338.26H509.669C510.665 338.26 511.596 338.754 512.154 339.579L513.515 341.591C514.705 343.35 517.295 343.35 518.485 341.591L519.846 339.579C520.404 338.754 521.335 338.26 522.331 338.26H559C560.657 338.26 562 336.917 562 335.26V278Z" />
        </mask>
        <!--Белый ФОН 2-го Блока-->
        <path fill-rule="evenodd" clip-rule="evenodd"
            d="M562 278C562 276.343 560.657 275 559 275H473C471.343 275 470 276.343 470 278V335.26C470 336.917 471.343 338.26 473 338.26H509.669C510.665 338.26 511.596 338.754 512.154 339.579L513.515 341.591C514.705 343.35 517.295 343.35 518.485 341.591L519.846 339.579C520.404 338.754 521.335 338.26 522.331 338.26H559C560.657 338.26 562 336.917 562 335.26V278Z"
            fill="white" />
        <!--БОРДЕР 2-го Блока (когда закоммент, то Бордера Нет)-->
        <path
            d="M519.846 339.579L519.017 339.019L519.846 339.579ZM513.515 341.591L514.343 341.031L513.515 341.591ZM518.485 341.591L517.657 341.031L518.485 341.591ZM512.154 339.579L512.983 339.019L512.154 339.579ZM473 276H559V274H473V276ZM471 335.26V278H469V335.26H471ZM509.669 337.26H473V339.26H509.669V337.26ZM514.343 341.031L512.983 339.019L511.326 340.14L512.687 342.151L514.343 341.031ZM519.017 339.019L517.657 341.031L519.313 342.151L520.674 340.14L519.017 339.019ZM559 337.26H522.331V339.26H559V337.26ZM561 278V335.26H563V278H561ZM559 339.26C561.209 339.26 563 337.469 563 335.26H561C561 336.365 560.105 337.26 559 337.26V339.26ZM520.674 340.14C521.046 339.59 521.667 339.26 522.331 339.26V337.26C521.003 337.26 519.761 337.919 519.017 339.019L520.674 340.14ZM512.687 342.151C514.273 344.497 517.727 344.497 519.313 342.151L517.657 341.031C516.863 342.204 515.136 342.204 514.343 341.031L512.687 342.151ZM509.669 339.26C510.333 339.26 510.954 339.59 511.326 340.14L512.983 339.019C512.239 337.919 510.997 337.26 509.669 337.26V339.26ZM469 335.26C469 337.469 470.791 339.26 473 339.26V337.26C471.895 337.26 471 336.365 471 335.26H469ZM559 276C560.105 276 561 276.895 561 278H563C563 275.791 561.209 274 559 274V276ZM473 274C470.791 274 469 275.791 469 278H471C471 276.895 471.895 276 473 276V274Z"
            fill="#D8E0F7" mask="url(#path-13-inside-2_9_326)" />
        <!--ПОЛУКРУГ в Синем СОДЕРЖИМОМ 2-го Блока-->
        <path d="M499 308.25C499 298.723 506.668 291 516.128 291C517.871 291 519.554 291.262 521.139 291.75"
            stroke="#5F82FF" stroke-width="4" stroke-linecap="round" stroke-linejoin="round" />
        <!-- СТРЕЛКА в Синем СОДЕРЖИМОМ 2-го Блока -->
        <path fill-rule="evenodd" clip-rule="evenodd"
            d="M512.442 311.962C514.477 314.013 517.778 314.013 519.814 311.962C521.849 309.912 530.276 295.5 529.532 294.75C528.787 294 514.477 302.487 512.442 304.538C510.406 306.588 510.406 309.912 512.442 311.962ZM516.128 309.75C516.95 309.75 517.617 309.078 517.617 308.25C517.617 307.422 516.95 306.75 516.128 306.75C515.305 306.75 514.638 307.422 514.638 308.25C514.638 309.078 515.305 309.75 516.128 309.75Z"
            fill="#5F82FF" />
        <!--КРУЖКИ в Синем СОДЕРЖИМОМ 2-го Блока-->
        <ellipse cx="501.234" cy="317.25" rx="1.48936" ry="1.5" fill="#5F82FF" />
        <ellipse cx="507.191" cy="323.25" rx="1.48936" ry="1.5" fill="#5F82FF" />
        <ellipse cx="516.128" cy="325.5" rx="1.48936" ry="1.5" fill="#5F82FF" />
        <ellipse cx="525.064" cy="323.25" rx="1.48936" ry="1.5" fill="#5F82FF" />
        <ellipse cx="530.277" cy="317.25" rx="1.48936" ry="1.5" fill="#5F82FF" />
        <ellipse cx="532.511" cy="308.25" rx="1.48936" ry="1.5" fill="#5F82FF" />
        <!--ПОЛУКРУГ в Синем СОДЕРЖИМОМ 1-го Блока-->
        <path d="M91 331.25C91 321.723 98.6683 314 108.128 314C109.871 314 111.554 314.262 113.139 314.75"
            stroke="#5F82FF" stroke-width="4" stroke-linecap="round" stroke-linejoin="round" />
        <!-- СТРЕЛКА в Синем СОДЕРЖИМОМ 1-го Блока -->
        <path fill-rule="evenodd" clip-rule="evenodd"
            d="M104.442 334.962C106.477 337.013 109.778 337.013 111.814 334.962C113.849 332.912 122.276 318.5 121.532 317.75C120.787 317 106.477 325.487 104.442 327.538C102.406 329.588 102.406 332.912 104.442 334.962ZM108.128 332.75C108.95 332.75 109.617 332.078 109.617 331.25C109.617 330.422 108.95 329.75 108.128 329.75C107.305 329.75 106.638 330.422 106.638 331.25C106.638 332.078 107.305 332.75 108.128 332.75Z"
            fill="#5F82FF" />
        <!--КРУЖКИ в Синем СОДЕРЖИМОМ 1-го Блока-->
        <ellipse cx="93.234" cy="340.25" rx="1.48936" ry="1.5" fill="#5F82FF" />
        <ellipse cx="99.1915" cy="346.25" rx="1.48936" ry="1.5" fill="#5F82FF" />
        <ellipse cx="108.128" cy="348.5" rx="1.48936" ry="1.5" fill="#5F82FF" />
        <ellipse cx="117.064" cy="346.25" rx="1.48936" ry="1.5" fill="#5F82FF" />
        <ellipse cx="122.277" cy="340.25" rx="1.48936" ry="1.5" fill="#5F82FF" />
        <ellipse cx="124.511" cy="331.25" rx="1.48936" ry="1.5" fill="#5F82FF" />
        <!--БОРДЕР 3-го БЛОКА (Когда закоммент, то Бордер Жирный )-->
        <mask id="path-31-inside-3_9_326" fill="white">
            <path fill-rule="evenodd" clip-rule="evenodd"
                d="M971 136C971 134.343 969.657 133 968 133H882C880.343 133 879 134.343 879 136V193.26C879 194.917 880.343 196.26 882 196.26H918.669C919.665 196.26 920.596 196.754 921.154 197.579L922.515 199.591C923.705 201.35 926.295 201.35 927.485 199.591L928.846 197.579C929.404 196.754 930.335 196.26 931.331 196.26H968C969.657 196.26 971 194.917 971 193.26V136Z" />
        </mask>
        <!--Белый ФОН 3-го Блока-->
        <path fill-rule="evenodd" clip-rule="evenodd"
            d="M971 136C971 134.343 969.657 133 968 133H882C880.343 133 879 134.343 879 136V193.26C879 194.917 880.343 196.26 882 196.26H918.669C919.665 196.26 920.596 196.754 921.154 197.579L922.515 199.591C923.705 201.35 926.295 201.35 927.485 199.591L928.846 197.579C929.404 196.754 930.335 196.26 931.331 196.26H968C969.657 196.26 971 194.917 971 193.26V136Z"
            fill="white" />
        <!--БОРДЕР 3-го БЛОКА (Когда закоммент, то Бордера Нет)-->
        <path
            d="M921.154 197.579L920.326 198.14L921.154 197.579ZM882 134H968V132H882V134ZM880 193.26V136H878V193.26H880ZM918.669 195.26H882V197.26H918.669V195.26ZM923.343 199.031L921.983 197.019L920.326 198.14L921.687 200.151L923.343 199.031ZM928.017 197.019L926.657 199.031L928.313 200.151L929.674 198.14L928.017 197.019ZM968 195.26H931.331V197.26H968V195.26ZM970 136V193.26H972V136H970ZM968 197.26C970.209 197.26 972 195.469 972 193.26H970C970 194.365 969.105 195.26 968 195.26V197.26ZM929.674 198.14C930.046 197.59 930.667 197.26 931.331 197.26V195.26C930.003 195.26 928.761 195.919 928.017 197.019L929.674 198.14ZM921.687 200.151C923.273 202.497 926.727 202.497 928.313 200.151L926.657 199.031C925.863 200.204 924.136 200.204 923.343 199.031L921.687 200.151ZM918.669 197.26C919.333 197.26 919.954 197.59 920.326 198.14L921.983 197.019C921.239 195.919 919.997 195.26 918.669 195.26V197.26ZM878 193.26C878 195.469 879.791 197.26 882 197.26V195.26C880.895 195.26 880 194.365 880 193.26H878ZM968 134C969.105 134 970 134.895 970 136H972C972 133.791 970.209 132 968 132V134ZM882 132C879.791 132 878 133.791 878 136H880C880 134.895 880.895 134 882 134V132Z"
            fill="#D8E0F7" mask="url(#path-31-inside-3_9_326)" />
        <!--ПОЛУКРУГ в Синем СОДЕРЖИМОМ 3-го Блока-->
        <path d="M908 166.25C908 156.723 915.668 149 925.128 149C926.871 149 928.554 149.262 930.139 149.75"
            stroke="#5F82FF" stroke-width="4" stroke-linecap="round" stroke-linejoin="round" />
        <!-- СТРЕЛКА в Синем СОДЕРЖИМОМ 3-го Блока -->
        <path fill-rule="evenodd" clip-rule="evenodd"
            d="M921.442 169.962C923.477 172.013 926.778 172.013 928.814 169.962C930.849 167.912 939.276 153.5 938.532 152.75C937.787 152 923.477 160.487 921.442 162.538C919.406 164.588 919.406 167.912 921.442 169.962ZM925.128 167.75C925.95 167.75 926.617 167.078 926.617 166.25C926.617 165.422 925.95 164.75 925.128 164.75C924.305 164.75 923.638 165.422 923.638 166.25C923.638 167.078 924.305 167.75 925.128 167.75Z"
            fill="#5F82FF" />
        <!--КРУЖКИ в Синем СОДЕРЖИМОМ 3-го Блока-->
        <ellipse cx="910.234" cy="175.25" rx="1.48936" ry="1.5" fill="#5F82FF" />
        <ellipse cx="916.192" cy="181.25" rx="1.48936" ry="1.5" fill="#5F82FF" />
        <ellipse cx="925.128" cy="183.5" rx="1.48936" ry="1.5" fill="#5F82FF" />
        <ellipse cx="934.064" cy="181.25" rx="1.48936" ry="1.5" fill="#5F82FF" />
        <ellipse cx="939.277" cy="175.25" rx="1.48936" ry="1.5" fill="#5F82FF" />
        <ellipse cx="941.511" cy="166.25" rx="1.48936" ry="1.5" fill="#5F82FF" />
        <!--БОРДЕР 4-го БЛОКА (Когда закоммент, то Бордер Жирный )-->
        <mask id="path-41-inside-4_9_326" fill="white">
            <path fill-rule="evenodd" clip-rule="evenodd"
                d="M1379 23C1379 21.3431 1377.66 20 1376 20H1290C1288.34 20 1287 21.3431 1287 23V80.26C1287 81.9168 1288.34 83.26 1290 83.26H1326.67C1327.67 83.26 1328.6 83.7543 1329.15 84.5794L1330.51 86.5912C1331.7 88.3504 1334.3 88.3504 1335.48 86.5912L1336.85 84.5794C1337.4 83.7543 1338.33 83.26 1339.33 83.26H1376C1377.66 83.26 1379 81.9168 1379 80.26V23Z" />
        </mask>
        <!--Белый ФОН 4-го Блока-->
        <path fill-rule="evenodd" clip-rule="evenodd"
            d="M1379 23C1379 21.3431 1377.66 20 1376 20H1290C1288.34 20 1287 21.3431 1287 23V80.26C1287 81.9168 1288.34 83.26 1290 83.26H1326.67C1327.67 83.26 1328.6 83.7543 1329.15 84.5794L1330.51 86.5912C1331.7 88.3504 1334.3 88.3504 1335.48 86.5912L1336.85 84.5794C1337.4 83.7543 1338.33 83.26 1339.33 83.26H1376C1377.66 83.26 1379 81.9168 1379 80.26V23Z"
            fill="white" />
        <!--БОРДЕР 4-го БЛОКА (Когда закоммент, то Бордера Нет)-->
        <path
            d="M1336.85 84.5794L1336.02 84.0191L1336.85 84.5794ZM1330.51 86.5912L1331.34 86.031L1330.51 86.5912ZM1335.48 86.5912L1336.31 87.1514L1335.48 86.5912ZM1290 21H1376V19H1290V21ZM1288 80.26V23H1286V80.26H1288ZM1326.67 82.26H1290V84.26H1326.67V82.26ZM1331.34 86.031L1329.98 84.0191L1328.33 85.1396L1329.69 87.1514L1331.34 86.031ZM1336.02 84.0191L1334.66 86.031L1336.31 87.1514L1337.67 85.1396L1336.02 84.0191ZM1376 82.26H1339.33V84.26H1376V82.26ZM1378 23V80.26H1380V23H1378ZM1376 84.26C1378.21 84.26 1380 82.4691 1380 80.26H1378C1378 81.3645 1377.1 82.26 1376 82.26V84.26ZM1337.67 85.1396C1338.05 84.5895 1338.67 84.26 1339.33 84.26V82.26C1338 82.26 1336.76 82.9191 1336.02 84.0191L1337.67 85.1396ZM1329.69 87.1514C1331.27 89.497 1334.73 89.497 1336.31 87.1514L1334.66 86.031C1333.86 87.2038 1332.14 87.2038 1331.34 86.031L1329.69 87.1514ZM1326.67 84.26C1327.33 84.26 1327.95 84.5895 1328.33 85.1396L1329.98 84.0191C1329.24 82.9191 1328 82.26 1326.67 82.26V84.26ZM1286 80.26C1286 82.4691 1287.79 84.26 1290 84.26V82.26C1288.9 82.26 1288 81.3645 1288 80.26H1286ZM1376 21C1377.1 21 1378 21.8954 1378 23H1380C1380 20.7909 1378.21 19 1376 19V21ZM1290 19C1287.79 19 1286 20.7909 1286 23H1288C1288 21.8954 1288.9 21 1290 21V19Z"
            fill="#D8E0F7" mask="url(#path-41-inside-4_9_326)" />
        <!--ПОЛУКРУГ в Синем СОДЕРЖИМОМ 4-го Блока-->
        <path d="M1316 53.25C1316 43.7231 1323.67 36 1333.13 36C1334.87 36 1336.55 36.2624 1338.14 36.75"
            stroke="#5F82FF" stroke-width="4" stroke-linecap="round" stroke-linejoin="round" />
        <!-- СТРЕЛКА в Синем СОДЕРЖИМОМ 4-го Блока -->
        <path fill-rule="evenodd" clip-rule="evenodd"
            d="M1329.44 56.9623C1331.48 59.0126 1334.78 59.0126 1336.81 56.9623C1338.85 54.912 1347.28 40.5 1346.53 39.75C1345.79 39 1331.48 47.4874 1329.44 49.5377C1327.41 51.5879 1327.41 54.912 1329.44 56.9623ZM1333.13 54.75C1333.95 54.75 1334.62 54.0785 1334.62 53.25C1334.62 52.4216 1333.95 51.75 1333.13 51.75C1332.3 51.75 1331.64 52.4216 1331.64 53.25C1331.64 54.0785 1332.3 54.75 1333.13 54.75Z"
            fill="#5F82FF" />
        <!--КРУЖКИ в Синем СОДЕРЖИМОМ 4-го Блока-->
        <ellipse cx="1318.23" cy="62.25" rx="1.48936" ry="1.5" fill="#5F82FF" />
        <ellipse cx="1324.19" cy="68.25" rx="1.48936" ry="1.5" fill="#5F82FF" />
        <ellipse cx="1333.13" cy="70.5" rx="1.48936" ry="1.5" fill="#5F82FF" />
        <ellipse cx="1342.06" cy="68.25" rx="1.48936" ry="1.5" fill="#5F82FF" />
        <ellipse cx="1347.28" cy="62.25" rx="1.48936" ry="1.5" fill="#5F82FF" />
        <ellipse cx="1349.51" cy="53.25" rx="1.48936" ry="1.5" fill="#5F82FF" />

    </g>


    <defs>
        <filter id="filter0_d_9_326" x="902" y="201" width="45" height="45" filterUnits="userSpaceOnUse"
            color-interpolation-filters="sRGB">
            <feFlood flood-opacity="0" result="BackgroundImageFix" />
            <feColorMatrix in="SourceAlpha" type="matrix" values="0 0 0 0 0 0 0 0 0 0 0 0 0 0 0 0 0 0 127 0"
                result="hardAlpha" />
            <feOffset />
            <feGaussianBlur stdDeviation="7.5" />
            <feColorMatrix type="matrix" values="0 0 0 0 0.323144 0 0 0 0 0.512664 0 0 0 0 1 0 0 0 0.25 0" />
            <feBlend mode="normal" in2="BackgroundImageFix" result="effect1_dropShadow_9_326" />
            <feBlend mode="normal" in="SourceGraphic" in2="effect1_dropShadow_9_326" result="shape" />
        </filter>
        <filter id="filter1_d_9_326" x="1310" y="87" width="45" height="45" filterUnits="userSpaceOnUse"
            color-interpolation-filters="sRGB">
            <feFlood flood-opacity="0" result="BackgroundImageFix" />
            <feColorMatrix in="SourceAlpha" type="matrix" values="0 0 0 0 0 0 0 0 0 0 0 0 0 0 0 0 0 0 127 0"
                result="hardAlpha" />
            <feOffset />
            <feGaussianBlur stdDeviation="7.5" />
            <feColorMatrix type="matrix" values="0 0 0 0 0.323144 0 0 0 0 0.512664 0 0 0 0 1 0 0 0 0.25 0" />
            <feBlend mode="normal" in2="BackgroundImageFix" result="effect1_dropShadow_9_326" />
            <feBlend mode="normal" in="SourceGraphic" in2="effect1_dropShadow_9_326" result="shape" />
        </filter>
        <filter id="filter2_d_9_326" x="85" y="372" width="45" height="45" filterUnits="userSpaceOnUse"
            color-interpolation-filters="sRGB">
            <feFlood flood-opacity="0" result="BackgroundImageFix" />
            <feColorMatrix in="SourceAlpha" type="matrix" values="0 0 0 0 0 0 0 0 0 0 0 0 0 0 0 0 0 0 127 0"
                result="hardAlpha" />
            <feOffset />
            <feGaussianBlur stdDeviation="7.5" />
            <feColorMatrix type="matrix" values="0 0 0 0 0.323144 0 0 0 0 0.512664 0 0 0 0 1 0 0 0 0.25 0" />
            <feBlend mode="normal" in2="BackgroundImageFix" result="effect1_dropShadow_9_326" />
            <feBlend mode="normal" in="SourceGraphic" in2="effect1_dropShadow_9_326" result="shape" />
        </filter>
        <filter id="filter3_d_9_326" x="59" y="0" width="1350" height="412" filterUnits="userSpaceOnUse"
            color-interpolation-filters="sRGB">
            <feFlood flood-opacity="0" result="BackgroundImageFix" />
            <feColorMatrix in="SourceAlpha" type="matrix" values="0 0 0 0 0 0 0 0 0 0 0 0 0 0 0 0 0 0 127 0"
                result="hardAlpha" />
            <feOffset dy="10" />
            <feGaussianBlur stdDeviation="15" />
            <feColorMatrix type="matrix" values="0 0 0 0 0.894415 0 0 0 0 0.918495 0 0 0 0 0.984716 0 0 0 1 0" />
            <feBlend mode="normal" in2="BackgroundImageFix" result="effect1_dropShadow_9_326" />
            <feBlend mode="normal" in="SourceGraphic" in2="effect1_dropShadow_9_326" result="shape" />
        </filter>
        <filter id="filter4_d_9_326" x="493" y="342" width="45" height="45" filterUnits="userSpaceOnUse"
            color-interpolation-filters="sRGB">
            <feFlood flood-opacity="0" result="BackgroundImageFix" />
            <feColorMatrix in="SourceAlpha" type="matrix" values="0 0 0 0 0 0 0 0 0 0 0 0 0 0 0 0 0 0 127 0"
                result="hardAlpha" />
            <feOffset />
            <feGaussianBlur stdDeviation="7.5" />
            <feColorMatrix type="matrix" values="0 0 0 0 0.323144 0 0 0 0 0.512664 0 0 0 0 1 0 0 0 0.25 0" />
            <feBlend mode="normal" in2="BackgroundImageFix" result="effect1_dropShadow_9_326" />
            <feBlend mode="normal" in="SourceGraphic" in2="effect1_dropShadow_9_326" result="shape" />
        </filter>
        <linearGradient id="paint0_linear_9_326" x1="278.466" y1="440.443" x2="278.466" y2="-14.9949"
            gradientUnits="userSpaceOnUse">
            <stop stop-color="#4B71FF" stop-opacity="0" />
            <stop offset="1" stop-color="#6B89F8" />
        </linearGradient>
    </defs>

</svg>